<?xml version="1.0" encoding="utf-8"?>
<!-- Generator: Adobe Illustrator 24.0.1, SVG Export Plug-In . SVG Version: 6.00 Build 0)  -->
<svg version="1.1" id="Layer_1" xmlns="http://www.w3.org/2000/svg" xmlns:xlink="http://www.w3.org/1999/xlink" x="0px" y="0px"
	 viewBox="0 0 1319 276" style="enable-background:new 0 0 1319 276;" xml:space="preserve">
<style type="text/css">
	.st0{fill:#FEFEFE;}
	.st1{fill:#009BD5;}
	.st2{fill:#4EC7F3;}
	.st3{fill:#EE5145;}
</style>
<g>
	<path class="st0" d="M440.3,88.1c0,54-0.1,107.9,0.1,161.9c0,4.5-1.2,5.6-5.5,5.4c-9.7-0.3-19.3-0.2-29,0c-3.2,0.1-3.9-1-3.9-4
		c0.1-74.4,0.1-148.9,0-223.3c0-3.3,0.9-4.3,4.2-4.2c14.7,0.2,29.3,0.2,44,0c3.6-0.1,4.8,1.4,6.1,4.3
		c23.5,55.5,47.1,110.9,70.7,166.4c0.7,1.7,1.5,3.3,2.6,5.7c5.3-12.7,10.4-24.7,15.4-36.8c18.9-45,37.9-90,56.6-135
		c1.5-3.5,3.2-4.6,6.9-4.6c14.7,0.2,29.3,0.2,44,0c3.6,0,4.4,1.1,4.4,4.5c-0.1,74.3-0.1,148.5,0,222.8c0,3.2-0.7,4.3-4.1,4.2
		c-10-0.2-20-0.3-30,0c-3.9,0.1-5-0.9-4.9-4.9c0.1-52.6,0.1-105.2,0.1-157.9c0-1.8,0-3.6,0-5.8c-2,1.4-2.2,3.2-2.8,4.8
		c-22.4,52.9-44.8,105.8-67.1,158.7c-1.6,3.8-3.4,5.3-7.6,5.1c-8-0.4-16-0.3-24,0c-3.7,0.2-5.1-1.3-6.5-4.5
		C487.6,198,465.3,145,443,92.1c-0.6-1.5-1.3-2.9-1.9-4.3C440.8,87.9,440.5,88,440.3,88.1z"/>
	<path class="st1" d="M105.8,255.2c-28.5,0.1-56.9,0.1-85.4,0.2c-2.1,0-3.1-0.6-2.9-2.8c0.1-1,0-2,0-3c0-73.2,0-146.5,0-219.7
		c0-1.8,0.2-3.6,0.3-5.4c1.8-0.8,3.6-0.4,5.4-0.4c25.3,0,50.6,0,75.9,0c8.1,0,8.1,0,8.1,8.3c0,42.3,0,84.5,0,126.8
		c0,29.5,0,58.9,0,88.4C107.3,250.2,107.9,253,105.8,255.2z"/>
	<path class="st1" d="M328.7,24.6c0.1,1.7,0.2,3.3,0.2,5c0,73.4,0,146.9,0.1,220.3c0,4.6-1.3,5.7-5.7,5.6c-27.5-0.3-55-0.2-82.5-0.2
		c-1.7-1.8-1.4-4-1.4-6.1c0-72.9,0-145.8,0-218.7c0-6.2,0.3-6.4,6.5-6.4c26,0,51.9,0,77.9,0C325.5,24.1,327.2,23.7,328.7,24.6z"/>
	<path class="st2" d="M328.7,24.6c-27.7,0-55.3,0-83-0.1c-3.3,0-5.1,0.3-5.1,4.5c0.1,75.4,0.1,150.9,0.2,226.3c-0.3,0-0.7,0-1,0
		c-0.4-0.4-0.7-0.9-0.9-1.5c-0.7-3-0.5-6-0.5-8.9c0-71.4,0-142.7,0-215C231.9,41,225.9,51.5,219.8,62
		c-14.1,24.4-28.1,48.7-42.2,73.1c-1.1,2-2,4.3-4.7,4.7c-3.3-1.8-4.4-5.3-6.1-8.3c-19.4-33.7-39-67.4-58.5-101.4
		c0,72.5,0,144.7,0,216.9c0,2,0,4-0.2,6c-0.2,0.9-0.7,1.6-1.3,2.2l-0.5,0.1c0,0-0.5-0.1-0.5-0.1c0-74.8,0-149.5,0-224.3
		c0-6.4,0-6.4-6.5-6.4c-27.2,0-54.3-0.1-81.5-0.1c1.7-1.7,3.8-0.8,5.7-0.8c43.8,0,87.6,0.1,131.3,0.1c56.1,0,112.2-0.1,168.3-0.1
		C325,23.7,327.2,22.8,328.7,24.6z"/>
	<path class="st0" d="M1245.3,119.1c11.8-18.4,28.7-25.2,49.5-24.5c6.7,0.2,6.7,0.3,6.7,6.7c0,9.3-0.2,18.6,0.1,28
		c0.1,4-1.2,4.8-4.8,4.3c-8-1.1-16-0.7-23.7,1.6c-15.8,4.7-25.3,17.5-26.2,36.1c-1.3,25.9-0.4,51.9-0.4,77.9c0,5.4-1.6,6.6-6.6,6.4
		c-9.1-0.4-18.3-0.2-27.5,0c-3.1,0.1-3.9-0.9-3.9-3.9c0.1-50.4,0.1-100.8,0-151.3c0-2.6,0.3-3.9,3.4-3.8c10,0.2,20,0.2,30,0
		c3-0.1,3.6,1.1,3.5,3.8C1245.2,106.4,1245.3,112.8,1245.3,119.1z"/>
	<path class="st3" d="M239.7,254.1c0.1,0.4,0.1,0.8,0.2,1.2c-44.4,0-88.7,0-133.1-0.1c0.1-0.5,0.1-0.9,0.2-1.4
		c3.4-9.7,9.4-17.9,14.5-26.7c15.8-27.6,31.7-55,47.6-82.6c1-1.7,1.8-3.6,3.9-4.4c3,0.1,3.6,2.7,4.7,4.6
		c13.2,22.6,26.2,45.2,39.3,67.8c6.7,11.5,13.4,23,20,34.6C238,249.5,239,251.7,239.7,254.1z"/>
	<path class="st0" d="M1044.7,176.5c0,24.6-0.1,49.2,0.1,73.9c0,3.7-0.6,5.2-4.8,5.1c-9.5-0.4-19-0.2-28.5,0
		c-3.3,0.1-4.6-0.6-4.6-4.3c0.1-50.2,0.1-100.5,0-150.7c0-3,0.7-4,3.8-4c10,0.2,20,0.2,30,0c3.5-0.1,4,1.2,4,4.3
		C1044.6,125.9,1044.7,151.2,1044.7,176.5z"/>
	<path class="st0" d="M1025.9,65.1c-13.5,0.1-24.5-10.7-24.7-24.2c-0.2-13.6,11.1-25.1,24.5-25c13.5,0,24.8,11.4,24.8,24.9
		C1050.5,54.1,1039.5,64.9,1025.9,65.1z"/>
	<path class="st0" d="M990.8,245.9c-0.1-0.8-0.1-1.7-0.1-2.5c-1.4-36.9-0.5-73.9-0.6-110.9c-0.2-36.1-0.1-72.3,0.1-108.4
		c0-4.3-1.2-5.3-5.3-5.1c-8.8,0.3-17.7,0.3-26.5,0c-4.2-0.2-5.2,1.1-5.2,5.2c0.2,28,0.1,55.9,0.1,83.9c0,1.6,0.6,3.3-0.7,5.1
		c-6.2-9.7-15.1-15.4-25.8-18.5c-28.4-8.3-59.8,1.9-77.7,25.5c-16.3,21.5-20.9,46-16.6,72.2c3.9,23.7,14.9,43.2,35.9,56.1
		c24.6,15.1,65,16.5,85.4-13.1c0.4,5.4,0.9,10.1,1.1,14.7c0.1,3.6,1.1,5.3,5.3,5.1c7.1-0.4,14.3,0,21.5-0.2c3.3-0.1,7.5,1.5,9.6-0.8
		C992.5,253,991,248.9,990.8,245.9z M950.2,196.5c-6.5,19.4-21.7,30.1-40.9,29.2c-19.1-0.9-33.5-13.3-38.4-33.3
		c-1.4-5.7-2.2-11.4-2.1-17.3c0.3-13.8,3.6-26.6,13.3-37.1c17.7-19,57.1-18.2,68.4,16.3C955,168.3,954.9,182.5,950.2,196.5z"/>
	<path class="st0" d="M812.3,128.7c-19.5-38.4-69-44.1-98.1-30.6c-54.8,25.5-58,97.6-28.1,133.1c19.6,23.4,45.4,31.9,75.1,27.9
		c27.7-3.8,47.4-18.9,57.9-45.3c1.2-3,1-4.3-2.4-5.3c-8.3-2.4-16.5-5.1-24.7-7.8c-2.5-0.8-3.7-0.6-4.8,2.2
		c-5.6,14.1-16.2,21.8-31.1,24.1c-24.6,3.8-48-13.2-50.4-36.5c-0.4-3.5,0.3-4.5,4-4.5c18,0.2,36,0.1,54,0.1c17.8,0,35.7,0,53.5,0
		c2.3,0,4.5,0.6,4.8-3.2C823.4,164,821,145.8,812.3,128.7z M780.3,158.5c-11.7-0.2-23.3-0.1-35-0.1s-23.3-0.2-35,0.1
		c-3.7,0.1-4-1.3-3.5-4.3c2.5-15.4,16.3-28.8,32.1-30.6c9.6-1.1,19-0.3,27.6,4.5c10.4,5.8,15.7,14.9,17.4,26.4
		C784.3,157.8,783.4,158.5,780.3,158.5z"/>
	<path class="st0" d="M1196.8,251.7c-2-13.2-1.3-26.6-1.4-39.9c-0.1-20.1,0.1-40.3-0.1-60.4c-0.2-24.5-9.4-44-33.2-53.6
		c-20.6-8.4-42-9-62.9-1.1c-20.2,7.6-33.5,21.7-37.8,43.4c-0.4,2.1-0.6,3.3,2,3.9c9.8,2.1,19.5,4.3,29.2,6.6
		c1.9,0.4,2.9,0.4,3.3-2.1c2.8-16.4,15.5-27.5,36.7-25.8c15.1,1.2,24.6,9.4,25.3,22c0.5,7.9-2.1,11.5-9.8,13
		c-5.9,1.2-11.8,1.9-17.7,2.9c-12.9,2.2-26.2,2.8-38.7,7.1c-16.8,5.7-29.2,16-32.9,34.2c-3.7,18.4,1.6,34,16,46.1
		c22.9,19.2,62.6,15.5,81.7-7.4c1.1-1.3,1.7-3.2,3.8-4c0.6,5.2,0.2,10.4,1.1,15.4c0.4,2.7,1.4,3.5,4.1,3.5c9.3-0.2,18.7-0.2,28,0
		C1196.4,255.4,1197.2,254.6,1196.8,251.7z M1158.1,187.2c-0.2,1.3,0,2.7,0,4c0,4.5-0.5,9-1.7,13.3c-5.3,19.8-27.7,31.3-47.1,24.3
		c-8-2.9-13.1-9.4-13.6-17.4c-0.5-9.1,3-15.9,11.2-19.9c9-4.4,19.1-4.1,28.7-6c5.7-1.1,11.6-1.5,17.2-2.7
		C1157,182,1158.7,182.8,1158.1,187.2z"/>
	<path class="st0" d="M239.7,254.1c-11.6-19.8-23.2-39.6-34.7-59.4c-9.8-16.8-19.4-33.7-29.2-50.5c-0.8-1.4-1.1-3.2-2.9-3.8
		c-0.2-0.4-0.2-0.7,0.1-1c8.4-12.4,15.3-25.7,22.8-38.6c14.2-24.3,28.1-48.7,42.2-73c0.3-0.5,0.7-1,1.1-1.5c1.2,0.5,0.8,1.5,0.8,2.2
		c0,74.4,0,148.8,0,223.2C239.8,252.5,239.7,253.3,239.7,254.1z"/>
	<path class="st0" d="M172.9,139.4c0,0.3-0.1,0.7-0.1,1c-21.2,36.8-42.4,73.5-63.6,110.3c-0.7,1.1-1.5,2.1-2.3,3.2
		c-0.1-0.8-0.2-1.7-0.2-2.5c0-74.4,0-148.8,0-223.2c0-0.5,0.1-1,0.3-3.1C129.5,63.9,151.2,101.7,172.9,139.4z"/>
</g>
</svg>
